<svg width="16" height="12" viewBox="0 0 16 12" fill="none" xmlns="http://www.w3.org/2000/svg">
<path d="M13.5447 0.994812C12.5247 0.534812 11.4313 0.194812 10.288 0.0014785C10.2778 -0.000476227 10.2673 0.000783468 10.2579 0.00508339C10.2484 0.0093833 10.2406 0.0165107 10.2353 0.0254785C10.0953 0.271479 9.93935 0.592145 9.83002 0.845479C8.61741 0.664303 7.38462 0.664303 6.17202 0.845479C6.05024 0.564719 5.91291 0.290961 5.76068 0.0254785C5.75552 0.0164003 5.74772 0.00911167 5.73831 0.00458525C5.7289 5.88286e-05 5.71833 -0.00149016 5.70802 0.000145101C4.56535 0.193478 3.47202 0.533479 2.45135 0.994145C2.44257 0.997828 2.43512 1.00411 2.43002 1.01215C0.355349 4.06215 -0.213318 7.03681 0.0660152 9.97415C0.0667925 9.98134 0.0690256 9.9883 0.0725785 9.9946C0.0761315 10.0009 0.0809299 10.0064 0.0866819 10.0108C1.29761 10.8924 2.64824 11.564 4.08202 11.9975C4.09201 12.0006 4.1027 12.0005 4.11269 11.9975C4.12268 11.9944 4.13151 11.9883 4.13802 11.9801C4.44655 11.5675 4.71995 11.1298 4.95535 10.6715C4.95862 10.6652 4.9605 10.6583 4.96087 10.6513C4.96124 10.6442 4.96009 10.6372 4.9575 10.6306C4.95491 10.624 4.95093 10.6181 4.94585 10.6132C4.94076 10.6083 4.93468 10.6045 4.92802 10.6021C4.49735 10.44 4.08007 10.2443 3.68002 10.0168C3.67283 10.0127 3.66677 10.0069 3.66239 9.99986C3.658 9.99284 3.65543 9.98484 3.6549 9.97658C3.65438 9.96832 3.65591 9.96006 3.65936 9.95254C3.66281 9.94501 3.66808 9.93846 3.67468 9.93348C3.75868 9.87148 3.84268 9.80681 3.92268 9.74215C3.92988 9.73633 3.93856 9.73263 3.94774 9.73145C3.95692 9.73027 3.96625 9.73167 3.97468 9.73548C6.59268 10.9115 9.42802 10.9115 12.0153 9.73548C12.0238 9.73144 12.0332 9.72987 12.0425 9.73093C12.0519 9.73199 12.0607 9.73564 12.068 9.74148C12.148 9.80681 12.2313 9.87148 12.316 9.93348C12.3227 9.93836 12.328 9.94482 12.3316 9.95228C12.3352 9.95974 12.3368 9.96796 12.3364 9.97622C12.336 9.98448 12.3336 9.99251 12.3293 9.99959C12.3251 10.0067 12.3191 10.0126 12.312 10.0168C11.9133 10.2461 11.4987 10.4401 11.0633 10.6015C11.0567 10.6039 11.0506 10.6077 11.0455 10.6127C11.0404 10.6177 11.0364 10.6237 11.0338 10.6303C11.0312 10.6369 11.0301 10.644 11.0305 10.6511C11.0309 10.6582 11.0327 10.6652 11.036 10.6715C11.276 11.1295 11.5507 11.5655 11.8527 11.9795C11.859 11.988 11.8677 11.9943 11.8777 11.9977C11.8878 12.001 11.8986 12.0012 11.9087 11.9981C13.3449 11.5659 14.6978 10.894 15.91 10.0108C15.9159 10.0067 15.9209 10.0013 15.9246 9.99512C15.9283 9.98891 15.9306 9.98199 15.9313 9.97481C16.2647 6.57881 15.3727 3.62815 13.5653 1.01348C13.5609 1.00498 13.5536 0.998358 13.5447 0.994812ZM5.34668 8.18548C4.55868 8.18548 3.90868 7.47281 3.90868 6.59881C3.90868 5.72414 4.54602 5.01215 5.34668 5.01215C6.15335 5.01215 6.79735 5.73014 6.78468 6.59881C6.78468 7.47348 6.14735 8.18548 5.34668 8.18548ZM10.6633 8.18548C9.87468 8.18548 9.22535 7.47281 9.22535 6.59881C9.22535 5.72414 9.86202 5.01215 10.6633 5.01215C11.47 5.01215 12.114 5.73014 12.1013 6.59881C12.1013 7.47348 11.4707 8.18548 10.6633 8.18548Z" fill="white"/>
</svg>
