<svg width="32" height="32" viewBox="0 0 32 32" fill="none" xmlns="http://www.w3.org/2000/svg">
<path d="M16 0.640137C7.51682 0.640137 0.640015 7.51694 0.640015 16.0001C0.640015 24.4833 7.51682 31.3601 16 31.3601C24.4832 31.3601 31.36 24.4833 31.36 16.0001C31.36 7.51694 24.4832 0.640137 16 0.640137ZM21.9072 17.9697C21.9072 17.9697 23.2656 19.3105 23.6 19.9329C23.6096 19.9457 23.6144 19.9585 23.6176 19.9649C23.7536 20.1937 23.7856 20.3713 23.7184 20.5041C23.6064 20.7249 23.2224 20.8337 23.0912 20.8433H20.6912C20.5248 20.8433 20.176 20.8001 19.7536 20.5089C19.4294 20.2822 19.11 19.9103 18.7986 19.5478L18.7968 19.5457C18.3312 19.0049 17.928 18.5377 17.5216 18.5377C17.47 18.5376 17.4187 18.5457 17.3696 18.5617C17.0624 18.6609 16.6688 19.0993 16.6688 20.2673C16.6688 20.6321 16.3808 20.8417 16.1776 20.8417H15.0784C14.704 20.8417 12.7536 20.7105 11.0256 18.8881C8.91041 16.6561 7.00641 12.1793 6.99041 12.1377C6.87041 11.8481 7.11841 11.6929 7.38881 11.6929H9.81281C10.136 11.6929 10.2416 11.8897 10.3152 12.0641C10.4016 12.2673 10.7184 13.0753 11.2384 13.9841C12.0816 15.4657 12.5984 16.0673 13.0128 16.0673C13.0905 16.0664 13.1668 16.0467 13.2352 16.0097C13.776 15.7089 13.6752 13.7809 13.6512 13.3809C13.6512 13.3057 13.6496 12.5185 13.3728 12.1409C13.1744 11.8673 12.8368 11.7633 12.632 11.7249C12.7149 11.6106 12.8241 11.5178 12.9504 11.4545C13.3216 11.2689 13.9904 11.2417 14.6544 11.2417H15.024C15.744 11.2513 15.9296 11.2977 16.1904 11.3633C16.7184 11.4897 16.7296 11.8305 16.6832 12.9969C16.6688 13.3281 16.6544 13.7025 16.6544 14.1441C16.6544 14.2401 16.6496 14.3425 16.6496 14.4513L16.6495 14.4557C16.6335 15.0482 16.6154 15.7192 17.0336 15.9953C17.0883 16.0296 17.1515 16.0479 17.216 16.0481C17.3616 16.0481 17.8 16.0481 18.9872 14.0113C19.3534 13.3558 19.6715 12.6745 19.9392 11.9729C19.9632 11.9313 20.0336 11.8033 20.1168 11.7537C20.1782 11.7224 20.2463 11.7065 20.3152 11.7073H23.1648C23.4752 11.7073 23.688 11.7537 23.728 11.8737C23.7984 12.0641 23.7152 12.6449 22.4144 14.4065L21.8336 15.1729C20.6544 16.7185 20.6544 16.7969 21.9072 17.9697Z" fill="white"/>
<path d="M21.9072 17.9697C21.9072 17.9697 23.2656 19.3105 23.6 19.9329C23.6096 19.9457 23.6144 19.9585 23.6176 19.9649C23.7536 20.1937 23.7856 20.3713 23.7184 20.5041C23.6064 20.7249 23.2224 20.8337 23.0912 20.8433H20.6912C20.5248 20.8433 20.176 20.8001 19.7536 20.5089C19.4294 20.2822 19.11 19.9103 18.7986 19.5478L18.7968 19.5457C18.3312 19.0049 17.928 18.5377 17.5216 18.5377C17.47 18.5376 17.4187 18.5457 17.3696 18.5617C17.0624 18.6609 16.6688 19.0993 16.6688 20.2673C16.6688 20.6321 16.3808 20.8417 16.1776 20.8417H15.0784C14.704 20.8417 12.7536 20.7105 11.0256 18.8881C8.91041 16.6561 7.00641 12.1793 6.99041 12.1377C6.87041 11.8481 7.11841 11.6929 7.38881 11.6929H9.81281C10.136 11.6929 10.2416 11.8897 10.3152 12.0641C10.4016 12.2673 10.7184 13.0753 11.2384 13.9841C12.0816 15.4657 12.5984 16.0673 13.0128 16.0673C13.0905 16.0664 13.1668 16.0467 13.2352 16.0097C13.776 15.7089 13.6752 13.7809 13.6512 13.3809C13.6512 13.3057 13.6496 12.5185 13.3728 12.1409C13.1744 11.8673 12.8368 11.7633 12.632 11.7249C12.7149 11.6106 12.8241 11.5178 12.9504 11.4545C13.3216 11.2689 13.9904 11.2417 14.6544 11.2417H15.024C15.744 11.2513 15.9296 11.2977 16.1904 11.3633C16.7184 11.4897 16.7296 11.8305 16.6832 12.9969C16.6688 13.3281 16.6544 13.7025 16.6544 14.1441C16.6544 14.2401 16.6496 14.3425 16.6496 14.4513L16.6495 14.4557C16.6335 15.0482 16.6154 15.7192 17.0336 15.9953C17.0883 16.0296 17.1515 16.0479 17.216 16.0481C17.3616 16.0481 17.8 16.0481 18.9872 14.0113C19.3534 13.3558 19.6715 12.6745 19.9392 11.9729C19.9632 11.9313 20.0336 11.8033 20.1168 11.7537C20.1782 11.7224 20.2463 11.7065 20.3152 11.7073H23.1648C23.4752 11.7073 23.688 11.7537 23.728 11.8737C23.7984 12.0641 23.7152 12.6449 22.4144 14.4065L21.8336 15.1729C20.6544 16.7185 20.6544 16.7969 21.9072 17.9697Z" fill="black"/>
</svg>
